<svg height="512" viewBox="0 0 512 512" width="512" xmlns="http://www.w3.org/2000/svg" style="fill:#0D0D0D" ><g id="outline"><path d="m341.078 157.732-72.556-36.278a28.124 28.124 0 0 0 -25.044 0l-72.556 36.278a22.311 22.311 0 0 0 19.955 39.911l64.223-32.114a2.014 2.014 0 0 1 1.791 0l64.228 32.115a22.311 22.311 0 0 0 19.955-39.911zm-4.726 23.456a6.323 6.323 0 0 1 -8.074 2.144l-64.229-32.115a18.091 18.091 0 0 0 -16.1 0l-64.228 32.114a6.324 6.324 0 0 1 -8.074-2.144 6.311 6.311 0 0 1 2.429-9.145l72.556-36.278a12.058 12.058 0 0 1 10.733 0l72.556 36.278a6.311 6.311 0 0 1 2.429 9.145z"/><path d="m203.653 231.117a114.88 114.88 0 0 1 104.694 0 8 8 0 0 0 7.306-14.234 130.916 130.916 0 0 0 -119.306 0 8 8 0 1 0 7.306 14.234z"/><path d="m308.347 352.883a114.88 114.88 0 0 1 -104.694 0 8 8 0 1 0 -7.306 14.234 130.912 130.912 0 0 0 119.306 0 8 8 0 0 0 -7.306-14.234z"/><path d="m309.8 280.308a196.762 196.762 0 0 1 -86.283 4.818c-2.56-26.783-15.251-45.935-31.519-45.935h-31.998c-18.243 0-32 24.076-32 56s13.757 56 32 56h32c17.045 0 30.17-21.019 31.821-49.818a212.648 212.648 0 0 0 90.377-5.681 8 8 0 0 0 -4.4-15.384zm-118.1 6.883h15.946c.228 2.547.357 5.213.357 8s-.129 5.454-.357 8h-15.946c.195-2.6.3-5.271.3-8s-.108-5.391-.3-8zm12.756-16h-15.336a64.843 64.843 0 0 0 -6.3-16h9.18c4 0 9.1 5.856 12.453 16zm-44.453-16c6.524 0 16 15.582 16 40s-9.476 40-16 40-16-15.582-16-40 9.473-40 15.997-40zm32 80h-9.176a64.843 64.843 0 0 0 6.3-16h15.333c-3.36 10.145-8.46 16-12.46 16z"/><path d="m447.794 193.3c-.144-.066-.29-.126-.437-.183l-34.707-13.358a124.532 124.532 0 0 0 -9.992-8.843l-20.358-16.129a112.331 112.331 0 0 0 -50.553-48.36l-29.555-14.085a106.816 106.816 0 0 0 -92.383 0l-29.558 14.085a112.331 112.331 0 0 0 -50.553 48.36l-20.356 16.129a124.532 124.532 0 0 0 -9.992 8.843l-34.707 13.358c-.147.057-.293.117-.437.183a82.236 82.236 0 0 0 .567 149.984l33.105 14.747a140.024 140.024 0 0 0 15.493 14.8l29.913 24.474a178 178 0 0 0 225.432 0l29.913-24.474a139.956 139.956 0 0 0 16.019-15.382l32.579-14.165a82.236 82.236 0 0 0 .567-149.984zm-376.51 135.369a66.235 66.235 0 0 1 -.666-120.707l9.307-3.583a121.871 121.871 0 0 0 -16.45 80.121q.217 1.514.469 3.024a139.916 139.916 0 0 0 15.649 44.85zm317.216 31.779-29.914 24.474a162 162 0 0 1 -205.168 0l-29.918-24.474a123.911 123.911 0 0 1 -43.775-75.559q-.224-1.338-.416-2.678c-5.359-37.134 9.956-74.974 39.967-98.754l21.69-17.186a8.008 8.008 0 0 0 2.153-2.625 96.22 96.22 0 0 1 44.013-42.776l29.558-14.085a90.824 90.824 0 0 1 78.617 0l29.557 14.085a96.22 96.22 0 0 1 44.013 42.776 8.008 8.008 0 0 0 2.153 2.625l21.69 17.186c30.011 23.78 45.326 61.62 39.967 98.754q-.192 1.339-.416 2.678a123.9 123.9 0 0 1 -27.355 59.343l-.108.047.024.055a124.052 124.052 0 0 1 -16.332 16.114zm52.284-31.808-8.308 3.611a139.916 139.916 0 0 0 15.582-44.731q.252-1.51.469-3.024a121.871 121.871 0 0 0 -16.451-80.117l9.308 3.582a66.236 66.236 0 0 1 -.6 120.679z"/></g></svg>