<svg height="512" viewBox="0 0 512 512" width="512" xmlns="http://www.w3.org/2000/svg" style="fill:#0D0D0D"><g id="outline"><path d="m256 136a120 120 0 1 0 120 120 120.136 120.136 0 0 0 -120-120zm0 224a104 104 0 1 1 104-104 104.118 104.118 0 0 1 -104 104z"/><path d="m288 192a32 32 0 1 0 32 32 32.036 32.036 0 0 0 -32-32zm0 48a16 16 0 1 1 16-16 16.019 16.019 0 0 1 -16 16z"/><path d="m200 232a24 24 0 1 0 24 24 24.027 24.027 0 0 0 -24-24zm0 32a8 8 0 1 1 8-8 8.009 8.009 0 0 1 -8 8z"/><path d="m272 296a24 24 0 1 0 24 24 24.027 24.027 0 0 0 -24-24zm0 32a8 8 0 1 1 8-8 8.009 8.009 0 0 1 -8 8z"/><circle cx="256" cy="48" r="8"/><circle cx="108.922" cy="108.922" r="8"/><circle cx="224" cy="200" r="8"/><circle cx="312" cy="280" r="8"/><circle cx="216" cy="296" r="8"/><circle cx="48" cy="256" r="8"/><circle cx="108.922" cy="403.078" r="8"/><circle cx="256" cy="464" r="8"/><circle cx="403.078" cy="403.078" r="8"/><path d="m464 224a32.056 32.056 0 0 0 -30.987 24h-25.223a151.043 151.043 0 0 0 -8.494-42.7l31.042-12.858a24.117 24.117 0 0 0 17.862 7.958 24 24 0 1 0 -9.216-46.173 24.037 24.037 0 0 0 -14.778 23.44l-31.046 12.86a152.565 152.565 0 0 0 -24.226-36.148l17.889-17.889a32 32 0 1 0 -6.372-50.2 32.059 32.059 0 0 0 -4.941 38.883l-17.889 17.889a152.565 152.565 0 0 0 -36.148-24.226l12.857-31.036c.413.021.825.034 1.236.034a24 24 0 1 0 -22.141-33.185 24.038 24.038 0 0 0 6.124 27.024l-12.849 31.027a151.043 151.043 0 0 0 -42.7-8.49v-25.223a32 32 0 1 0 -16 0v25.223a151.043 151.043 0 0 0 -42.7 8.494l-12.849-31.031a24 24 0 1 0 -38.222-8.656 24.037 24.037 0 0 0 22.2 14.815c.411 0 .823-.013 1.236-.034l12.857 31.041a152.565 152.565 0 0 0 -36.148 24.226l-17.884-17.888a32 32 0 1 0 -50.2 6.372 32.069 32.069 0 0 0 38.883 4.941l17.889 17.889a152.565 152.565 0 0 0 -24.226 36.148l-31.036-12.858a24 24 0 1 0 -33.148 20.906 23.868 23.868 0 0 0 9.148 1.825 24.121 24.121 0 0 0 17.861-7.956l31.039 12.856a151.043 151.043 0 0 0 -8.49 42.7h-25.223a32 32 0 1 0 0 16h25.223a151.043 151.043 0 0 0 8.494 42.7l-31.031 12.849a24 24 0 1 0 -8.656 38.222 24.037 24.037 0 0 0 14.783-23.439l31.044-12.859a152.565 152.565 0 0 0 24.226 36.148l-17.89 17.889a31.989 31.989 0 1 0 6.373 50.2 32.059 32.059 0 0 0 4.941-38.883l17.889-17.889a152.565 152.565 0 0 0 36.148 24.226l-12.863 31.036a24 24 0 1 0 20.907 33.148 24.038 24.038 0 0 0 -6.124-27.024l12.849-31.024a151.043 151.043 0 0 0 42.7 8.49v25.223a32 32 0 1 0 16 0v-25.223a151.043 151.043 0 0 0 42.7-8.494l12.853 31.031a24 24 0 1 0 38.222 8.656 24.036 24.036 0 0 0 -23.443-14.783l-12.859-31.04a152.565 152.565 0 0 0 36.148-24.226l17.889 17.889a32 32 0 1 0 50.2-6.372 32.059 32.059 0 0 0 -38.882-4.941l-17.89-17.889a152.565 152.565 0 0 0 24.226-36.148l31.036 12.859a24 24 0 1 0 33.148-20.907 24.042 24.042 0 0 0 -27.024 6.124l-31.024-12.849a151.043 151.043 0 0 0 8.49-42.7h25.223a32 32 0 1 0 30.987-40zm-18.895-54.989a8 8 0 1 1 -4.328 10.456v-.007a8.008 8.008 0 0 1 4.328-10.449zm-116.9-108.24a8 8 0 1 1 4.33 10.453 8.007 8.007 0 0 1 -4.328-10.453zm-159.194 6.129a8 8 0 1 1 10.456 4.328h-.007a8.008 8.008 0 0 1 -10.449-4.328zm-108.24 116.9a8 8 0 1 1 10.453-4.33 8.01 8.01 0 0 1 -10.453 4.323zm6.124 159.2a8 8 0 1 1 4.328-10.455v.006a8.008 8.008 0 0 1 -4.323 10.438zm116.9 108.24a8 8 0 1 1 -4.33-10.453 8.008 8.008 0 0 1 4.328 10.442zm159.2-6.124a8 8 0 1 1 -10.456-4.328h.007a8 8 0 0 1 10.449 4.33zm105.183-117.516a8 8 0 1 1 -7.4 4.939 7.965 7.965 0 0 1 7.4-4.939zm-56.414-229.992a16 16 0 1 1 .006 22.632l-.01-.009a16.019 16.019 0 0 1 .004-22.623zm-151.764-49.608a16 16 0 1 1 16 16 16.019 16.019 0 0 1 -16-16zm-142.392 72.236a16 16 0 1 1 22.632-.006l-.009.01a16.02 16.02 0 0 1 -22.623-.004zm-49.608 151.764a16 16 0 1 1 16-16 16.019 16.019 0 0 1 -16 16zm72.236 142.392a15.994 15.994 0 1 1 -.006-22.632l.01.009a16.019 16.019 0 0 1 -.004 22.623zm151.764 49.608a16 16 0 1 1 -16-16 16.019 16.019 0 0 1 16 16zm-16-72c-74.991 0-136-61.009-136-136s61.009-136 136-136 136 61.009 136 136-61.009 136-136 136zm158.392-.236a16 16 0 1 1 -22.632.006l.009-.01a16.017 16.017 0 0 1 22.623 0zm49.608-119.764a16 16 0 1 1 16-16 16.019 16.019 0 0 1 -16 16z"/><circle cx="464" cy="256" r="8"/><circle cx="403.078" cy="108.922" r="8"/></g></svg>