<?xml version="1.0"?>
<svg xmlns="http://www.w3.org/2000/svg" viewBox="0 0 512 512" width="512" height="512"><g id="outline"><path d="M448,322.073V257.762a52.358,52.358,0,0,0-4.878-21.991L406.87,158.09A66.236,66.236,0,0,0,347.062,120H346a42.064,42.064,0,0,0-39.667,28.222L288,139.056V24a8,8,0,0,0-8-8H232a8,8,0,0,0-8,8V139.056l-18.324,9.162A42.048,42.048,0,0,0,166,120h-1.062a66.236,66.236,0,0,0-59.808,38.09L68.878,235.771A52.358,52.358,0,0,0,64,257.762V336a32.036,32.036,0,0,0,32,32h59.156a31.935,31.935,0,0,0,26.625-14.25l17.486-26.228A51.842,51.842,0,0,0,208,298.678V196.944l16-8V248a8,8,0,0,0,8,8h48a8,8,0,0,0,8-8V188.944l16,8V298.678a51.842,51.842,0,0,0,8.733,28.844l6.568,9.851a95.99,95.99,0,1,0,128.7-15.3ZM192,298.678a35.888,35.888,0,0,1-6.046,19.969l-17.485,26.228A15.97,15.97,0,0,1,155.156,352H96a16.019,16.019,0,0,1-16-16V257.762a36.252,36.252,0,0,1,3.377-15.225l36.252-77.682A50.178,50.178,0,0,1,164.938,136H166a26.027,26.027,0,0,1,25.174,19.468l-47.7,23.848A27.854,27.854,0,0,0,128,204.36v9.218L97.344,259.562A8,8,0,0,0,96,264v32a8,8,0,0,0,16,0V275.1l8,2.667V296a8,8,0,0,0,16,0V272a8,8,0,0,0-5.47-7.59l-14.064-4.688L128,242.422V248a8,8,0,0,0,8,8h16v44.687l-13.657,13.656A8,8,0,0,0,136,320v16a8,8,0,0,0,16,0V323.313l13.657-13.656A8,8,0,0,0,168,304V291.314l2.343,2.343a8,8,0,1,0,11.314-11.314L168,268.686V256a8,8,0,0,0,8-8V212.944l16-8Zm32-127.622-59.578,29.789A8,8,0,0,0,160,208v32H144V204.36a11.936,11.936,0,0,1,6.633-10.733L224,156.944ZM272,240H240V224h32Zm0-32H240V192h32Zm0-32H240V160h32Zm0-32H240V128h32Zm0-32H240V96h32Zm0-32H240V64h32Zm0-32H240V32h32Zm74,88h1.062a50.178,50.178,0,0,1,45.309,28.855l36.252,77.682A36.252,36.252,0,0,1,432,257.762v54.979a95.975,95.975,0,0,0-65.443-5.312,7.931,7.931,0,0,0-.9-1.086L360,300.687V274.829h0V256h16a8,8,0,0,0,8-8v-5.578l11.534,17.3L381.47,264.41A8,8,0,0,0,376,272v24a8,8,0,0,0,16,0V277.766l8-2.667V296a8,8,0,0,0,16,0V264a8,8,0,0,0-1.344-4.438L384,213.578V204.36a27.853,27.853,0,0,0-15.478-25.044l-47.691-23.845A26.046,26.046,0,0,1,346,136Zm-58,35.056V156.944l73.366,36.683A11.935,11.935,0,0,1,368,204.36V240H352V208a8,8,0,0,0-4.422-7.155ZM344,256v12.686l-13.657,13.657a8,8,0,0,0,11.314,11.314L344,291.314V304a8,8,0,0,0,2.343,5.657l3.907,3.907a96.317,96.317,0,0,0-19.316,12.415l-4.888-7.332A35.888,35.888,0,0,1,320,298.678V204.944l16,8V248A8,8,0,0,0,344,256Zm48,224a80,80,0,1,1,80-80A80.091,80.091,0,0,1,392,480Z"/><path d="M448.931,396.742a15.979,15.979,0,0,0-15.169,5.05l-10.936-2.247a31.6,31.6,0,0,0-1.688-8.778l9.322-6.144a16,16,0,1,0-8.805-13.36l-9.328,6.147a31.821,31.821,0,0,0-7.4-4.993l2.252-10.959a16,16,0,1,0-15.673-3.221l-2.252,10.96a31.863,31.863,0,0,0-8.77,1.67l-6.147-9.327a16,16,0,1,0-13.359,8.805l6.147,9.327a31.806,31.806,0,0,0-4.994,7.4l-10.959-2.252a16,16,0,1,0-3.22,15.671l10.959,2.253a31.826,31.826,0,0,0,1.67,8.77l-9.327,6.147a16,16,0,1,0,8.805,13.359l9.322-6.143a31.634,31.634,0,0,0,7.4,5.013l-2.247,10.936a16,16,0,1,0,15.673,3.22l2.25-10.951a31.585,31.585,0,0,0,8.766-1.688l6.154,9.336a16,16,0,1,0,13.359-8.805l-6.144-9.322a31.562,31.562,0,0,0,5.013-7.4l10.936,2.247a15.995,15.995,0,1,0,18.389-20.722Zm-42.4,7.617,0,0v0a15.4,15.4,0,1,1,0-.009Z"/></g></svg>
