<svg height="512" viewBox="0 0 512 512" width="512" xmlns="http://www.w3.org/2000/svg"><g id="outline"><path d="m456 72h-41.6a31.94 31.94 0 0 0 -28.235 16.941l-42.165 79.059v-56a8 8 0 0 0 -12.8-6.4l-3.378 2.533a158.476 158.476 0 0 0 -16.293 14.073 72.051 72.051 0 0 0 -12.329-11.806l-6.4-4.8a8 8 0 0 0 -12.8 6.4v80h-16v-56a56.092 56.092 0 0 0 -40-53.659v-34.341a32 32 0 0 0 -64 0v24a8 8 0 0 0 16 0v-24a16 16 0 0 1 32 0v32a8 8 0 0 0 -8 8v104h-8a8 8 0 0 0 -7.491 10.809l18.16 48.426a32.15 32.15 0 0 0 29.963 20.765h96.878a31.918 31.918 0 0 0 28.318-17.1l71-134.9h27.172a24 24 0 0 0 0-48zm-128 56.655v31.345h-26.361a144.728 144.728 0 0 1 26.361-31.345zm-28.284 4.345a7.979 7.979 0 0 0 .984 1.018q-2.423 2.924-4.7 5.961v-11.171a55.993 55.993 0 0 1 3.716 4.192zm-3.716 43h32v16h-32zm-48-40v24h-32v-63.2a40.071 40.071 0 0 1 32 39.2zm-32 40h32v16h-32zm240-72h-32a8 8 0 0 0 -7.079 4.274l-73.252 139.178a15.958 15.958 0 0 1 -14.159 8.548h-96.878a16.073 16.073 0 0 1 -14.981-10.382l-14.107-37.618h132.456a8 8 0 0 0 7.059-4.235l57.223-107.294a15.97 15.97 0 0 1 14.118-8.471h41.6a8 8 0 0 1 0 16z"/><path d="m424 288h-368a8 8 0 0 0 -8 8 184.364 184.364 0 0 0 104 165.735v26.265a8 8 0 0 0 8 8h160a8 8 0 0 0 8-8v-26.265a184.364 184.364 0 0 0 104-165.735 8 8 0 0 0 -8-8zm-8.19 16a167.492 167.492 0 0 1 -9.927 49.281c-9.042-1.381-14.7-4.58-21.133-8.237-9.111-5.177-19.438-11.044-39.15-11.044s-30.042 5.867-39.154 11.044c-8.461 4.806-15.766 8.956-31.253 8.956s-22.79-4.15-31.248-8.956c-9.111-5.177-19.438-11.044-39.152-11.044s-30.041 5.867-39.151 11.045c-8.458 4.805-15.762 8.955-31.242 8.955s-22.789-4.15-31.246-8.955c-5.814-3.305-12.137-6.883-21.067-9.045h21.913a8 8 0 0 0 0-16h-38.254c-.764-5.278-1.3-10.613-1.556-16zm-103.81 176h-144v-16h144zm7.59-32h-159.18a168.366 168.366 0 0 1 -87.257-97.419c9.6 1.3 15.5 4.632 22.092 8.374 9.11 5.178 19.437 11.045 39.155 11.045s30.04-5.867 39.151-11.044c8.449-4.806 15.757-8.956 31.242-8.956s22.79 4.15 31.248 8.956c9.111 5.177 19.438 11.044 39.152 11.044s30.042-5.867 39.154-11.044c8.458-4.806 15.763-8.956 31.253-8.956s22.791 4.15 31.25 8.956c6.11 3.471 12.882 7.313 22.695 9.424a168.225 168.225 0 0 1 -79.955 79.62z"/><circle cx="232" cy="136" r="8"/><path d="m115 272a8 8 0 0 0 8-8c0-6.524 1.648-9.382 3.93-13.336 2.7-4.688 6.07-10.522 6.07-21.332a36.849 36.849 0 0 0 -3.619-16.808 8 8 0 1 0 -14.411 6.952 21.023 21.023 0 0 1 2.03 9.856c0 6.524-1.648 9.382-3.93 13.336-2.704 4.688-6.07 10.522-6.07 21.332a8 8 0 0 0 8 8z"/><path d="m114.56 199.982c.179.012.356.018.532.018a8 8 0 0 0 7.975-7.476c.334-5.079 1.814-7.644 3.862-11.194 2.7-4.687 6.071-10.521 6.071-21.33a8 8 0 0 0 -16 0c0 6.523-1.648 9.38-3.929 13.334-2.4 4.163-5.391 9.343-5.969 18.142a8 8 0 0 0 7.458 8.506z"/><path d="m155 272a8 8 0 0 0 8-8c0-6.525 1.648-9.382 3.929-13.336a8 8 0 1 0 -13.858-8c-2.705 4.691-6.071 10.525-6.071 21.336a8 8 0 0 0 8 8z"/><path d="m156.721 225.163a8 8 0 0 0 15.83-2.326 38.969 38.969 0 0 0 -5.621-14.837c-2.282-3.954-3.93-6.812-3.93-13.337s1.648-9.38 3.929-13.333c2.7-4.687 6.071-10.521 6.071-21.33a8 8 0 0 0 -16 0c0 6.523-1.648 9.38-3.929 13.334-2.7 4.687-6.071 10.521-6.071 21.329s3.366 16.644 6.07 21.332c1.73 2.993 3.091 5.357 3.651 9.168z"/><path d="m387 264c0-6.524 1.648-9.382 3.93-13.336 2.7-4.688 6.07-10.522 6.07-21.332a8 8 0 0 0 -16 0c0 6.524-1.648 9.382-3.93 13.336-2.704 4.688-6.07 10.522-6.07 21.332a8 8 0 0 0 16 0z"/><path d="m427.472 216.085a8 8 0 0 0 -6.751 9.079 28.923 28.923 0 0 1 .279 4.168c0 6.524-1.648 9.382-3.93 13.336-2.704 4.688-6.07 10.522-6.07 21.332a8 8 0 0 0 16 0c0-6.524 1.648-9.382 3.93-13.336 2.7-4.688 6.07-10.522 6.07-21.332a44.332 44.332 0 0 0 -.449-6.5 8 8 0 0 0 -9.079-6.747z"/><path d="m429 152a8 8 0 0 0 -8 8c0 6.523-1.648 9.38-3.929 13.334-2.705 4.687-6.071 10.521-6.071 21.329a44.716 44.716 0 0 0 .451 6.5 8 8 0 0 0 7.9 6.836 8.094 8.094 0 0 0 1.176-.086 8 8 0 0 0 6.749-9.08 28.841 28.841 0 0 1 -.28-4.172c0-6.523 1.648-9.38 3.929-13.333 2.709-4.685 6.075-10.519 6.075-21.328a8 8 0 0 0 -8-8z"/><path d="m75 272a8 8 0 0 0 8-8c0-6.525 1.648-9.382 3.929-13.336a8 8 0 1 0 -13.858-8c-2.705 4.691-6.071 10.525-6.071 21.336a8 8 0 0 0 8 8z"/><path d="m76.721 225.163a8 8 0 0 0 15.83-2.326 38.969 38.969 0 0 0 -5.621-14.837c-2.282-3.954-3.93-6.812-3.93-13.337s1.648-9.38 3.929-13.333c2.705-4.687 6.071-10.521 6.071-21.33a8 8 0 0 0 -16 0c0 6.523-1.648 9.38-3.929 13.334-2.705 4.687-6.071 10.521-6.071 21.329s3.366 16.644 6.07 21.337c1.73 2.988 3.091 5.352 3.651 9.163z"/><path d="m200 368a24 24 0 1 0 24 24 24.027 24.027 0 0 0 -24-24zm0 32a8 8 0 1 1 8-8 8.009 8.009 0 0 1 -8 8z"/><path d="m328.451 372.68-59.422 23.768a8 8 0 0 0 -4.457 10.4 40 40 0 1 0 74.278-29.711 8 8 0 0 0 -10.399-4.457zm-17.826 41.595a24.046 24.046 0 0 1 -26.964-6.447l42.032-16.812a24.041 24.041 0 0 1 -15.068 23.259z"/><path d="m232 408h16v16h-16z"/><path d="m360 368h16v16h-16z"/><path d="m160 416h16v16h-16z"/><path d="m136 384h16v16h-16z"/><path d="m136 336h16a8 8 0 0 0 0-16h-16a8 8 0 0 0 0 16z"/></g></svg>